<?xml version="1.0" standalone="no"?>
<!DOCTYPE svg PUBLIC "-//W3C//DTD SVG 20010904//EN"
 "http://www.w3.org/TR/2001/REC-SVG-20010904/DTD/svg10.dtd">
<svg version="1.0" xmlns="http://www.w3.org/2000/svg"
 width="700.000000pt" height="700.000000pt" viewBox="0 0 700.000000 700.000000"
 preserveAspectRatio="xMidYMid meet">
<metadata>
Created by potrace 1.11, written by Peter Selinger 2001-2013
</metadata>
<g transform="translate(0.000000,700.000000) scale(0.100000,-0.100000)"
fill="#000000" stroke="none">
<path d="M5354 6975 c-122 -26 -234 -106 -287 -203 -59 -109 -57 -53 -57
-1399 l0 -1233 -74 82 c-295 333 -736 584 -1176 672 -170 34 -292 46 -467 46
-360 0 -669 -70 -980 -220 -677 -329 -1146 -998 -1268 -1808 -54 -361 -36
-765 50 -1100 107 -422 306 -779 605 -1086 406 -417 908 -656 1504 -717 172
-17 537 -7 692 20 420 72 792 236 1109 489 436 348 746 857 865 1415 51 243
50 191 50 2517 0 1423 -4 2180 -11 2209 -25 110 -109 221 -209 275 -94 51
-227 67 -346 41z m-1637 -2861 c607 -90 1105 -548 1268 -1166 75 -286 75 -665
-1 -955 -131 -505 -490 -916 -952 -1089 -176 -66 -283 -85 -502 -91 -287 -8
-464 23 -690 119 -366 155 -669 477 -828 878 -119 300 -150 704 -81 1045 134
665 658 1168 1315 1264 101 15 358 12 471 -5z"/>
<path d="M3362 3669 c-280 -42 -522 -261 -593 -536 -22 -87 -27 -248 -9 -326
16 -73 57 -174 96 -239 48 -79 155 -185 232 -228 l61 -35 1 -597 0 -598 320 0
320 0 0 598 0 597 53 29 c78 43 215 187 259 271 60 116 79 187 85 315 7 136
-14 239 -71 355 -88 179 -275 330 -467 379 -76 19 -212 26 -287 15z"/>
</g>
</svg>
