<?xml version="1.0" encoding="UTF-8" standalone="no"?>
<!-- Created with Inkscape (http://www.inkscape.org/) -->

<svg
   xmlns:dc="http://purl.org/dc/elements/1.1/"
   xmlns:cc="http://creativecommons.org/ns#"
   xmlns:rdf="http://www.w3.org/1999/02/22-rdf-syntax-ns#"
   xmlns:svg="http://www.w3.org/2000/svg"
   xmlns="http://www.w3.org/2000/svg"
   xmlns:sodipodi="http://sodipodi.sourceforge.net/DTD/sodipodi-0.dtd"
   xmlns:inkscape="http://www.inkscape.org/namespaces/inkscape"
   width="550"
   height="150"
   viewBox="0 0 145.52083 39.687499"
   version="1.1"
   id="svg977"
   inkscape:version="0.92.3 (2405546, 2018-03-11)"
   sodipodi:docname="logo-white.svg">
  <defs
     id="defs971" />
  <sodipodi:namedview
     id="base"
     pagecolor="#ffffff"
     bordercolor="#666666"
     borderopacity="1.0"
     inkscape:pageopacity="0.0"
     inkscape:pageshadow="2"
     inkscape:zoom="0.98994949"
     inkscape:cx="142.79724"
     inkscape:cy="-84.740723"
     inkscape:document-units="mm"
     inkscape:current-layer="layer1"
     showgrid="false"
     units="px"
     inkscape:window-width="1920"
     inkscape:window-height="1018"
     inkscape:window-x="0"
     inkscape:window-y="25"
     inkscape:window-maximized="1" />
  <metadata
     id="metadata974">
    <rdf:RDF>
      <cc:Work
         rdf:about="">
        <dc:format>image/svg+xml</dc:format>
        <dc:type
           rdf:resource="http://purl.org/dc/dcmitype/StillImage" />
        <dc:title />
      </cc:Work>
    </rdf:RDF>
  </metadata>
  <g
     inkscape:label="Layer 1"
     inkscape:groupmode="layer"
     id="layer1"
     transform="translate(0,-257.31252)">
    <g
       id="g927">
      <path
         inkscape:connector-curvature="0"
         id="path4530"
         d="m 40.656514,278.46109 c -1.609937,0 -3.05486,0.35576 -4.334551,1.06871 -1.259058,0.69315 -2.250053,1.67395 -2.972461,2.94143 -0.701769,1.24767 -1.052895,2.664 -1.052895,4.24836 0,1.58435 0.371912,2.99957 1.114966,4.24726 0.763687,1.24768 1.815905,2.22848 3.15752,2.94143 1.341614,0.69316 2.859301,1.04003 4.551795,1.04003 0.949451,1e-5 1.940452,-0.16846 2.972467,-0.50513 1.052648,-0.33666 1.929306,-0.7722 2.631075,-1.30693 0.330245,-0.23765 0.495412,-0.53466 0.495412,-0.89114 0,-0.3763 -0.185959,-0.7132 -0.557483,-1.01026 -0.227043,-0.19805 -0.536584,-0.29778 -0.928747,-0.29778 -0.392169,0 -0.732896,0.1097 -1.021857,0.32757 -0.433448,0.31686 -0.990165,0.58395 -1.671295,0.8018 -0.660485,0.21785 -1.30036,0.32646 -1.919572,0.32646 -1.568653,0 -2.900386,-0.42557 -3.994313,-1.27715 -1.073293,-0.8516 -1.723567,-1.97092 -1.95061,-3.35723 h 11.76571 c 0.171587,0 0.326943,-0.0251 0.473572,-0.0662 -0.0082,-0.15547 -0.01495,-0.31133 -0.01495,-0.46984 v -4.99613 c -0.617471,-1.17551 -1.492352,-2.09434 -2.626479,-2.75504 -1.155856,-0.67333 -2.528009,-1.01025 -4.117312,-1.01025 z m 0,2.55431 c 1.362254,0 2.46645,0.39676 3.312699,1.18893 0.84625,0.79217 1.362537,1.85165 1.548302,3.17855 H 35.207003 c 0.247683,-1.3269 0.836734,-2.38638 1.765546,-3.17855 0.949446,-0.79217 2.17723,-1.18893 3.683965,-1.18893 z"
         style="font-style:normal;font-variant:normal;font-weight:bold;font-stretch:normal;font-size:80px;line-height:1.25;font-family:Comfortaa;-inkscape-font-specification:'Comfortaa, Bold';font-variant-ligatures:normal;font-variant-caps:normal;font-variant-numeric:normal;font-feature-settings:normal;text-align:start;letter-spacing:0px;word-spacing:0px;writing-mode:lr-tb;text-anchor:start;fill:#ffffff;fill-opacity:1;stroke:none;stroke-width:0.37908769" />
      <path
         inkscape:connector-curvature="0"
         id="path4532"
         d="m 50.250925,272.76903 c -0.435754,0 -0.802911,0.1332 -1.100017,0.39925 -0.277297,0.26607 -0.41495,0.61836 -0.41495,1.05547 v 12.99876 c 0,1.48237 0.355934,2.83134 1.068979,4.04764 0.73286,1.19732 1.713397,2.14782 2.941429,2.85099 1.24784,0.68418 2.6347,1.0268 4.159838,1.0268 1.525137,0 2.910849,-0.34262 4.15869,-1.0268 0.534884,-0.2967 1.017902,-0.63991 1.454045,-1.02459 0,-5.7e-4 0,-0.002 0,-0.002 0,-0.22215 0.05779,-0.47775 0.173565,-0.76651 l 2.402337,-5.50346 c -0.0555,-1.32459 -0.386449,-2.53202 -0.998864,-3.62082 -0.653628,-1.21632 -1.564768,-2.16681 -2.733377,-2.85099 -1.148805,-0.68418 -2.436029,-1.0268 -3.862131,-1.0268 -1.148806,0 -2.218903,0.22878 -3.209251,0.6849 -0.990347,0.45613 -1.832083,1.09192 -2.525325,1.90912 v -7.69603 c 0,-0.43711 -0.138801,-0.7894 -0.416104,-1.05547 -0.277296,-0.26605 -0.643306,-0.39925 -1.098864,-0.39925 z m 6.655279,9.12317 c 0.990347,0 1.88133,0.23735 2.673607,0.71248 0.812086,0.45612 1.445617,1.09302 1.901181,1.91022 0.475367,0.79822 0.713804,1.70035 0.713804,2.70761 0,1.00725 -0.238437,1.91908 -0.713804,2.73629 -0.455564,0.81721 -1.089095,1.46379 -1.901181,1.9389 -0.792277,0.45613 -1.68326,0.6838 -2.673607,0.6838 -0.990348,0 -1.89256,-0.22767 -2.70464,-0.6838 -0.792283,-0.47511 -1.415738,-1.12169 -1.871296,-1.9389 -0.455564,-0.81721 -0.682772,-1.72904 -0.682772,-2.73629 0,-1.00726 0.227208,-1.90939 0.682772,-2.70761 0.455558,-0.8172 1.079013,-1.4541 1.871296,-1.91022 0.81208,-0.47513 1.714292,-0.71248 2.70464,-0.71248 z"
         style="font-style:normal;font-variant:normal;font-weight:bold;font-stretch:normal;font-size:80px;line-height:1.25;font-family:Comfortaa;-inkscape-font-specification:'Comfortaa, Bold';font-variant-ligatures:normal;font-variant-caps:normal;font-variant-numeric:normal;font-feature-settings:normal;text-align:start;letter-spacing:0px;word-spacing:0px;writing-mode:lr-tb;text-anchor:start;fill:#ffffff;fill-opacity:1;stroke:none;stroke-width:0.3637836" />
      <path
         d="m 87.426617,292.3942 q 0.173718,0.43316 0.173718,0.73307 0,0.69973 -0.520911,1.19952 -0.520911,0.49982 -1.284894,0.49982 -0.520912,0 -1.007079,-0.26657 -0.451446,-0.2999 -0.659819,-0.79969 L 82.18294,289.09546 H 69.715973 l -1.979436,4.66489 q -0.243072,0.49979 -0.694518,0.79969 -0.451468,0.26657 -0.972362,0.26657 -0.763992,0 -1.284897,-0.49982 -0.486176,-0.53313 -0.486176,-1.23286 0,-0.33322 0.17363,-0.76636 l 9.758262,-22.35815 q 0.520911,-1.16624 1.70162,-1.16624 1.250173,0 1.701619,1.16624 z M 70.931336,286.22988 H 80.967399 L 76.00145,274.36774 Z"
         style="font-style:normal;font-variant:normal;font-weight:bold;font-stretch:normal;font-size:80px;line-height:1.25;font-family:Comfortaa;-inkscape-font-specification:'Comfortaa, Bold';font-variant-ligatures:normal;font-variant-position:super;font-variant-caps:normal;font-variant-numeric:normal;font-feature-settings:normal;text-align:start;letter-spacing:0px;word-spacing:0px;writing-mode:lr-tb;text-anchor:start;fill:#ffffff;fill-opacity:1;stroke:none;stroke-width:0.42520636"
         id="path4534"
         inkscape:connector-curvature="0" />
      <path
         inkscape:connector-curvature="0"
         id="path4536"
         d="m 88.709017,281.64957 c -0.368846,0 -0.679553,0.12045 -0.931049,0.36175 -0.234718,0.22523 -0.351726,0.51408 -0.351726,0.86798 v 5.43949 l 1.779334,4.07521 c 0.115814,0.28878 0.174719,0.53349 0.174719,0.73343 0,0.14422 -0.02313,0.2799 -0.05632,0.41138 0.315756,0.27851 0.658425,0.52788 1.044844,0.73012 0.922121,0.48261 1.961604,0.7246 3.118437,0.7246 0.838298,0 1.626709,-0.13681 2.364407,-0.41028 0.737716,-0.28955 1.373871,-0.69176 1.910379,-1.20657 v 0.2647 c 0,0.3539 0.118151,0.65203 0.35288,0.89335 0.251479,0.22523 0.561032,0.33748 0.929895,0.33748 0.385607,0 0.696326,-0.11225 0.931049,-0.33748 0.234724,-0.24132 0.351734,-0.53945 0.351734,-0.89335 V 282.8793 c 0,-0.37001 -0.11701,-0.66703 -0.351734,-0.89225 -0.234723,-0.2252 -0.545442,-0.33748 -0.931049,-0.33748 -0.368863,0 -0.678416,0.11228 -0.929895,0.33748 -0.234729,0.22522 -0.35288,0.52224 -0.35288,0.89225 v 6.80488 c 0,0.57915 -0.166985,1.10181 -0.502309,1.56832 -0.318552,0.46652 -0.771838,0.83714 -1.358641,1.11062 -0.570047,0.27348 -1.207356,0.41028 -1.911527,0.41028 -1.207133,0 -2.17959,-0.32975 -2.917288,-0.9893 -0.720943,-0.67567 -1.080478,-1.66485 -1.080478,-2.9679 v -5.9369 c 0,-0.3539 -0.125537,-0.64275 -0.377015,-0.86798 -0.234741,-0.2413 -0.536932,-0.36175 -0.905767,-0.36175 z"
         style="font-style:normal;font-variant:normal;font-weight:bold;font-stretch:normal;font-size:80px;line-height:1.25;font-family:Comfortaa;-inkscape-font-specification:'Comfortaa, Bold';font-variant-ligatures:normal;font-variant-position:super;font-variant-caps:normal;font-variant-numeric:normal;font-feature-settings:normal;text-align:start;letter-spacing:0px;word-spacing:0px;writing-mode:lr-tb;text-anchor:start;fill:#ffffff;fill-opacity:1;stroke:none;stroke-width:0.30793035" />
      <path
         inkscape:connector-curvature="0"
         id="path4538"
         d="m 104.30812,270.80256 c -0.50934,0 -0.92533,0.15553 -1.24944,0.46653 -0.32411,0.31099 -0.48622,0.71014 -0.48622,1.19885 v 4.79871 h -1.59773 c -0.48617,0 -0.8795,0.13379 -1.180475,0.40035 -0.300961,0.26657 -0.451732,0.62114 -0.451732,1.0654 0,0.39986 0.150771,0.73376 0.451732,1.00033 0.300975,0.26657 0.694305,0.39925 1.180475,0.39925 h 1.59773 v 8.23093 c 0,1.22176 0.2664,2.32137 0.79887,3.29877 0.53248,0.97742 1.26133,1.75397 2.18739,2.33153 0.9492,0.55534 1.99093,0.83378 3.12534,0.83378 h 0.62529 c 0.60193,0 1.08823,-0.15552 1.45865,-0.46652 0.0923,-0.0729 0.17073,-0.15223 0.24138,-0.23492 -0.0638,-0.15526 -0.0977,-0.32579 -0.0977,-0.51174 v -1.64773 c -0.002,-0.002 -0.003,-0.004 -0.005,-0.006 -0.27781,-0.311 -0.62581,-0.46652 -1.04254,-0.46652 h -1.18048 c -0.74085,0 -1.36657,-0.2991 -1.87589,-0.89887 -0.50934,-0.59977 -0.76324,-1.34371 -0.76324,-2.23226 v -8.23093 h 2.95178 c 0.48617,0 0.87951,-0.13268 1.18048,-0.39925 0.30096,-0.26657 0.45173,-0.60047 0.45173,-1.00033 0,-0.44426 -0.15077,-0.79883 -0.45173,-1.0654 -0.30097,-0.26656 -0.69431,-0.40035 -1.18048,-0.40035 h -2.95178 v -4.79871 c 0,-0.48871 -0.1621,-0.88786 -0.48621,-1.19885 -0.32411,-0.311 -0.74126,-0.46653 -1.2506,-0.46653 z"
         style="font-style:normal;font-variant:normal;font-weight:bold;font-stretch:normal;font-size:80px;line-height:1.25;font-family:Comfortaa;-inkscape-font-specification:'Comfortaa, Bold';font-variant-ligatures:normal;font-variant-position:super;font-variant-caps:normal;font-variant-numeric:normal;font-feature-settings:normal;text-align:start;letter-spacing:0px;word-spacing:0px;writing-mode:lr-tb;text-anchor:start;fill:#ffffff;fill-opacity:1;stroke:none;stroke-width:0.42520636" />
      <path
         inkscape:connector-curvature="0"
         id="path4540"
         d="m 113.32206,275.75899 c -0.37336,0 -0.68797,0.11407 -0.94254,0.3419 -0.2376,0.22795 -0.35518,0.52875 -0.35518,0.90327 v 16.60965 c 0,0.35825 0.1176,0.66009 0.35518,0.90438 0.25457,0.22798 0.56918,0.3419 0.94254,0.3419 0.39033,0 0.70379,-0.1141 0.9414,-0.3419 0.2376,-0.24429 0.35747,-0.54613 0.35747,-0.90438 v -6.8876 c 0,-0.58623 0.16031,-1.11481 0.48277,-1.58707 0.33942,-0.47223 0.79886,-0.84702 1.37588,-1.12385 0.59398,-0.27684 1.24702,-0.4158 1.9598,-0.4158 1.22193,0 2.19673,0.3418 2.92649,1.0257 0.74674,0.66765 1.12071,1.66105 1.12071,2.98003 v 6.00859 c 0,0.35825 0.11895,0.66009 0.35632,0.90438 0.2546,0.22798 0.56805,0.3419 0.9414,0.3419 0.37337,0 0.67966,-0.1141 0.91726,-0.3419 0.002,-0.002 0.004,-0.005 0.007,-0.008 -0.23863,-0.24677 -0.35861,-0.55083 -0.35861,-0.91208 v -9.24891 c -0.0198,-0.0372 -0.0345,-0.0782 -0.0551,-0.1147 -0.52609,-0.94448 -1.25743,-1.66102 -2.19084,-2.14955 -0.93343,-0.48848 -1.98538,-0.73232 -3.15637,-0.73232 -0.84857,0 -1.64641,0.14614 -2.39314,0.43895 -0.74673,0.27681 -1.39146,0.67663 -1.93452,1.19775 v -5.98543 c 0,-0.37449 -0.11872,-0.67532 -0.35632,-0.90327 -0.23761,-0.22801 -0.55107,-0.3419 -0.9414,-0.3419 z"
         style="font-style:normal;font-variant:normal;font-weight:bold;font-stretch:normal;font-size:80px;line-height:1.25;font-family:Comfortaa;-inkscape-font-specification:'Comfortaa, Bold';font-variant-ligatures:normal;font-variant-position:super;font-variant-caps:normal;font-variant-numeric:normal;font-feature-settings:normal;text-align:start;letter-spacing:0px;word-spacing:0px;writing-mode:lr-tb;text-anchor:start;fill:#ffffff;fill-opacity:1;stroke:none;stroke-width:0.31169975" />
      <path
         d="m 132.69476,281.18415 q 1.77839,0 3.19592,0.74193 1.4176,0.74188 2.21655,2.17626 0.79902,1.4096 0.79902,3.41271 v 6.08363 q 0,0.54406 -0.38663,0.91503 -0.36081,0.34622 -0.92785,0.34622 -0.56702,0 -0.95363,-0.34622 -0.36085,-0.37097 -0.36085,-0.91503 v -6.08363 q 0,-2.00311 -1.13402,-3.01704 -1.10826,-1.03867 -2.964,-1.03867 -1.08251,0 -1.98458,0.42042 -0.87631,0.4204 -1.3918,1.13757 -0.4897,0.71719 -0.4897,1.60747 v 6.97388 q 0,0.54406 -0.36083,0.91503 -0.36082,0.34622 -0.95364,0.34622 -0.56701,0 -0.95363,-0.34622 -0.36083,-0.37097 -0.36083,-0.91503 v -11.02962 q 0,-0.56882 0.36083,-0.91503 0.38662,-0.34622 0.95363,-0.34622 0.59282,0 0.95364,0.34622 0.36083,0.34621 0.36083,0.91503 v 0.27201 q 0.82475,-0.79135 1.95882,-1.21178 1.13404,-0.44514 2.42275,-0.44514 z"
         style="font-style:normal;font-variant:normal;font-weight:bold;font-stretch:normal;font-size:80px;line-height:1.25;font-family:Comfortaa;-inkscape-font-specification:'Comfortaa, Bold';font-variant-ligatures:normal;font-variant-position:super;font-variant-caps:normal;font-variant-numeric:normal;font-feature-settings:normal;text-align:start;letter-spacing:0px;word-spacing:0px;writing-mode:lr-tb;text-anchor:start;fill:#ffffff;fill-opacity:1;stroke:none;stroke-width:0.31558245"
         id="path4542"
         inkscape:connector-curvature="0" />
      <path
         id="path4528"
         d="m 30.155195,259.48572 c -0.690524,0 -1.270593,0.2115 -1.741406,0.63308 -0.439425,0.42161 -0.659783,0.9782 -0.659783,1.67087 v 12.19696 c -1.098558,-1.29499 -2.43184,-2.30355 -4.001211,-3.02635 -1.569375,-0.7228 -3.264671,-1.08415 -5.085141,-1.08415 -2.259899,0 -4.316056,0.54259 -6.167918,1.62678 -1.820473,1.08419 -3.2639301,2.59002 -4.3311028,4.51745 -1.0357854,1.89734 -1.5540496,4.02016 -1.5540496,6.36926 0,2.34907 0.5654796,4.48697 1.695429,6.41445 1.1299494,1.89734 2.6835834,3.40317 4.6609944,4.51748 2.008803,1.08419 4.221202,1.62676 6.638041,1.62676 2.416837,0 4.598912,-0.54257 6.544932,-1.62676 1.837426,-1.03543 3.303565,-2.41334 4.409267,-4.12485 -0.228315,-0.77479 -0.347128,-1.59888 -0.347128,-2.47712 0,-1.58435 0.351118,-3.00068 1.052888,-4.24835 0.361755,-0.6347 0.791053,-1.19784 1.287377,-1.68855 v -18.99301 c 0,-0.69267 -0.219206,-1.24926 -0.658631,-1.67087 -0.439426,-0.42164 -1.020645,-0.63308 -1.742558,-0.63308 z M 19.609048,273.9414 c 1.569375,0 2.982502,0.37648 4.237998,1.12938 1.28689,0.7228 2.290778,1.73244 3.012692,3.02746 0.721915,1.26488 1.08278,2.6952 1.08278,4.29138 0,1.59615 -0.360865,3.04158 -1.08278,4.3366 -0.721914,1.29501 -1.725802,2.31865 -3.012692,3.07155 -1.255496,0.7228 -2.668623,1.08415 -4.237998,1.08415 -1.569377,0 -2.99709,-0.36135 -4.28398,-1.08415 -1.255497,-0.7529 -2.26054,-1.77654 -3.01384,-3.07155 -0.721913,-1.29502 -1.082774,-2.74045 -1.082774,-4.3366 0,-1.59618 0.360861,-3.0265 1.082774,-4.29138 0.7533,-1.29502 1.758343,-2.30466 3.01384,-3.02746 1.28689,-0.7529 2.714603,-1.12938 4.28398,-1.12938 z"
         style="font-style:normal;font-variant:normal;font-weight:bold;font-stretch:normal;font-size:80px;line-height:1.25;font-family:Comfortaa;-inkscape-font-specification:'Comfortaa, Bold';font-variant-ligatures:normal;font-variant-caps:normal;font-variant-numeric:normal;font-feature-settings:normal;text-align:start;letter-spacing:0px;word-spacing:0px;writing-mode:lr-tb;text-anchor:start;fill:#ffffff;fill-opacity:1;stroke:none;stroke-width:0.57647645"
         inkscape:connector-curvature="0" />
      <g
         style="fill:#ffffff"
         transform="matrix(0.05727665,0,0,0.05495728,68.707405,186.87421)"
         id="g4737">
        <g
           style="fill:#ffffff"
           transform="matrix(0.98462344,0,0,0.98462344,2152.1467,302.95663)"
           id="g4992">
          <path
             style="stroke-width:1.77696705;fill:#ffffff"
             inkscape:connector-curvature="0"
             d="m -3027.8052,1590.3965 v -110.3834 c 22.2459,-10.7702 37.606,-33.583 37.606,-59.9602 0,-36.762 -29.8086,-66.5723 -66.5759,-66.5723 -36.7725,0 -66.5758,29.8085 -66.5758,66.5723 0,26.3772 15.3548,49.1846 37.606,59.9602 v 110.3887 h 57.9397 z"
             id="path5097" />
        </g>
        <g
           style="fill:#ffffff"
           transform="matrix(0.98462344,0,0,0.98462344,671.87857,667.0133)"
           id="g4994" />
        <g
           style="fill:#ffffff"
           transform="matrix(0.98462344,0,0,0.98462344,671.87857,667.0133)"
           id="g4996" />
        <g
           style="fill:#ffffff"
           transform="matrix(0.98462344,0,0,0.98462344,671.87857,667.0133)"
           id="g4998" />
        <g
           style="fill:#ffffff"
           transform="matrix(0.98462344,0,0,0.98462344,671.87857,667.0133)"
           id="g5000" />
        <g
           style="fill:#ffffff"
           transform="matrix(0.98462344,0,0,0.98462344,671.87857,667.0133)"
           id="g5002" />
        <g
           style="fill:#ffffff"
           transform="matrix(0.98462344,0,0,0.98462344,671.87857,667.0133)"
           id="g5004" />
        <g
           style="fill:#ffffff"
           transform="matrix(0.98462344,0,0,0.98462344,671.87857,667.0133)"
           id="g5006" />
        <g
           style="fill:#ffffff"
           transform="matrix(0.98462344,0,0,0.98462344,671.87857,667.0133)"
           id="g5008" />
        <g
           style="fill:#ffffff"
           transform="matrix(0.98462344,0,0,0.98462344,671.87857,667.0133)"
           id="g5010" />
        <g
           style="fill:#ffffff"
           transform="matrix(0.98462344,0,0,0.98462344,671.87857,667.0133)"
           id="g5012" />
        <g
           style="fill:#ffffff"
           transform="matrix(0.98462344,0,0,0.98462344,671.87857,667.0133)"
           id="g5014" />
        <g
           style="fill:#ffffff"
           transform="matrix(0.98462344,0,0,0.98462344,671.87857,667.0133)"
           id="g5016" />
        <g
           style="fill:#ffffff"
           transform="matrix(0.98462344,0,0,0.98462344,671.87857,667.0133)"
           id="g5018" />
        <g
           style="fill:#ffffff"
           transform="matrix(0.98462344,0,0,0.98462344,671.87857,667.0133)"
           id="g5020" />
        <g
           style="fill:#ffffff"
           transform="matrix(0.98462344,0,0,0.98462344,671.87857,667.0133)"
           id="g5022" />
      </g>
      <ellipse
         ry="0.91965449"
         rx="0.95846683"
         style="fill:#9bcae0;fill-opacity:1;stroke-width:0.15250517"
         cy="280.03748"
         cx="19.585476"
         id="path56" />
      <g
         style="fill:#9bcae0;fill-opacity:1"
         transform="matrix(2.6345829,0,0,2.5278977,-109.31804,-43.986653)"
         id="g63">
        <rect
           style="fill:#9bcae0;fill-opacity:1;stroke-width:0.15502928"
           id="rect57"
           width="0.25192261"
           height="0.62011713"
           x="48.622272"
           y="131.33566" />
        <rect
           y="131.33566"
           x="48.980782"
           height="0.62011713"
           width="0.25192261"
           id="rect59"
           style="fill:#9bcae0;fill-opacity:1;stroke-width:0.15502928" />
      </g>
    </g>
  </g>
</svg>
