<?xml version="1.0" encoding="UTF-8" standalone="no"?>
<!-- Created with Inkscape (http://www.inkscape.org/) -->

<svg
   xmlns:dc="http://purl.org/dc/elements/1.1/"
   xmlns:cc="http://creativecommons.org/ns#"
   xmlns:rdf="http://www.w3.org/1999/02/22-rdf-syntax-ns#"
   xmlns:svg="http://www.w3.org/2000/svg"
   xmlns="http://www.w3.org/2000/svg"
   xmlns:sodipodi="http://sodipodi.sourceforge.net/DTD/sodipodi-0.dtd"
   xmlns:inkscape="http://www.inkscape.org/namespaces/inkscape"
   width="550"
   height="150"
   viewBox="0 0 145.52083 39.687499"
   version="1.1"
   id="svg977"
   inkscape:version="0.92.3 (2405546, 2018-03-11)"
   sodipodi:docname="logo-black.svg">
  <defs
     id="defs971" />
  <sodipodi:namedview
     id="base"
     pagecolor="#ffffff"
     bordercolor="#666666"
     borderopacity="1.0"
     inkscape:pageopacity="0.0"
     inkscape:pageshadow="2"
     inkscape:zoom="0.98994949"
     inkscape:cx="260.85968"
     inkscape:cy="54.865493"
     inkscape:document-units="mm"
     inkscape:current-layer="layer1"
     showgrid="false"
     units="px"
     inkscape:window-width="1920"
     inkscape:window-height="1018"
     inkscape:window-x="0"
     inkscape:window-y="25"
     inkscape:window-maximized="1" />
  <metadata
     id="metadata974">
    <rdf:RDF>
      <cc:Work
         rdf:about="">
        <dc:format>image/svg+xml</dc:format>
        <dc:type
           rdf:resource="http://purl.org/dc/dcmitype/StillImage" />
        <dc:title></dc:title>
      </cc:Work>
    </rdf:RDF>
  </metadata>
  <g
     inkscape:label="Layer 1"
     inkscape:groupmode="layer"
     id="layer1"
     transform="translate(0,-257.31252)">
    <g
       transform="matrix(2.2243098,0,0,2.1342383,-89.281224,5.9625155)"
       id="g929">
      <path
         inkscape:connector-curvature="0"
         id="path4530"
         transform="scale(0.26458333)"
         d="m 220.78906,482.56836 c -2.73559,0 -5.19079,0.63001 -7.36523,1.89258 -2.13938,1.22751 -3.82327,2.9644 -5.05078,5.20898 -1.19244,2.20951 -1.78907,4.71769 -1.78907,7.52344 0,2.80572 0.63195,5.31195 1.89454,7.52148 1.29765,2.20952 3.08557,3.94642 5.36523,5.20899 2.27966,1.22751 4.8585,1.84179 7.73437,1.84179 1.6133,10e-6 3.2972,-0.29832 5.05079,-0.89453 1.78865,-0.5962 3.27826,-1.3675 4.4707,-2.31445 0.56115,-0.42086 0.8418,-0.94684 0.8418,-1.57812 0,-0.66639 -0.31598,-1.26301 -0.94727,-1.78907 -0.38579,-0.35074 -0.91176,-0.52734 -1.57812,-0.52734 -0.66637,0 -1.24533,0.19426 -1.73633,0.58008 -0.73651,0.56113 -1.68248,1.03413 -2.83985,1.41992 -1.12229,0.38579 -2.20956,0.57812 -3.26172,0.57812 -2.66544,0 -4.92831,-0.75363 -6.7871,-2.26171 -1.82373,-1.50809 -2.92867,-3.49029 -3.31446,-5.94532 h 19.99219 c 0.29156,0 0.55554,-0.0445 0.80469,-0.11718 -0.0139,-0.27532 -0.0254,-0.55133 -0.0254,-0.83204 v -8.84765 c -1.0492,-2.08172 -2.53579,-3.70888 -4.46289,-4.87891 -1.96402,-1.19241 -4.29557,-1.78906 -6.9961,-1.78906 z m 0,4.52344 c 2.31473,0 4.19097,0.70261 5.62891,2.10547 1.43794,1.40286 2.31521,3.27909 2.63086,5.6289 H 211.5293 c 0.42086,-2.34981 1.42177,-4.22604 3,-5.6289 1.61329,-1.40286 3.69953,-2.10547 6.25976,-2.10547 z"
         style="font-style:normal;font-variant:normal;font-weight:bold;font-stretch:normal;font-size:80px;line-height:1.25;font-family:Comfortaa;-inkscape-font-specification:'Comfortaa, Bold';font-variant-ligatures:normal;font-variant-caps:normal;font-variant-numeric:normal;font-feature-settings:normal;text-align:start;letter-spacing:0px;word-spacing:0px;writing-mode:lr-tb;text-anchor:start;fill:#000000;fill-opacity:1;stroke:none;stroke-width:0.65759438" />
      <path
         inkscape:connector-curvature="0"
         id="path4532"
         transform="scale(0.26458333)"
         d="m 237.0918,472.48828 c -0.74043,0 -1.3643,0.23588 -1.86914,0.70703 -0.47118,0.47118 -0.70508,1.09505 -0.70508,1.86914 v 23.01953 c 0,2.62514 0.6048,5.01402 1.8164,7.16797 1.24527,2.12034 2.91139,3.80358 4.99805,5.04883 2.12032,1.21162 4.47686,1.81836 7.06836,1.81836 2.5915,0 4.94609,-0.60674 7.06641,-1.81836 0.90887,-0.52543 1.72961,-1.13322 2.4707,-1.81445 0,-0.001 0,-0.003 0,-0.004 0,-0.3934 0.0982,-0.84605 0.29492,-1.35742 l 4.08203,-9.74609 c -0.0943,-2.34571 -0.65665,-4.48395 -1.69726,-6.41211 -1.11064,-2.15398 -2.65884,-3.83722 -4.64453,-5.04883 -1.95204,-1.21162 -4.13928,-1.81836 -6.5625,-1.81836 -1.95204,0 -3.77034,0.40515 -5.45313,1.21289 -1.68279,0.80776 -3.11306,1.93368 -4.29101,3.38086 v -13.62891 c 0,-0.77409 -0.23585,-1.39796 -0.70704,-1.86914 -0.47118,-0.47115 -1.0931,-0.70703 -1.86718,-0.70703 z m 11.30859,16.15625 c 1.68279,0 3.19674,0.42032 4.54297,1.26172 1.37989,0.80774 2.45638,1.93563 3.23047,3.38281 0.80774,1.41357 1.21289,3.01116 1.21289,4.79492 0,1.78374 -0.40515,3.3985 -1.21289,4.84571 -0.77409,1.4472 -1.85058,2.59222 -3.23047,3.43359 -1.34623,0.80776 -2.86018,1.21094 -4.54297,1.21094 -1.68279,0 -3.21582,-0.40318 -4.5957,-1.21094 -1.34624,-0.84137 -2.40561,-1.98639 -3.17969,-3.43359 -0.77409,-1.44721 -1.16016,-3.06197 -1.16016,-4.84571 0,-1.78376 0.38607,-3.38135 1.16016,-4.79492 0.77408,-1.44718 1.83345,-2.57507 3.17969,-3.38281 1.37988,-0.8414 2.91291,-1.26172 4.5957,-1.26172 z"
         style="font-style:normal;font-variant:normal;font-weight:bold;font-stretch:normal;font-size:80px;line-height:1.25;font-family:Comfortaa;-inkscape-font-specification:'Comfortaa, Bold';font-variant-ligatures:normal;font-variant-caps:normal;font-variant-numeric:normal;font-feature-settings:normal;text-align:start;letter-spacing:0px;word-spacing:0px;writing-mode:lr-tb;text-anchor:start;fill:#000000;fill-opacity:1;stroke:none;stroke-width:0.63104677" />
      <path
         d="m 79.443898,134.20792 q 0.0781,0.20296 0.0781,0.34348 0,0.32786 -0.23419,0.56204 -0.23419,0.23419 -0.57766,0.23419 -0.23419,0 -0.45276,-0.1249 -0.20296,-0.14052 -0.29664,-0.3747 l -0.87429,-2.18574 h -5.60487 l -0.88991,2.18574 q -0.10928,0.23418 -0.31224,0.3747 -0.20297,0.1249 -0.437152,0.1249 -0.343474,0 -0.577661,-0.23419 -0.218574,-0.2498 -0.218574,-0.57766 0,-0.15613 0.07806,-0.35908 l 4.387097,-10.47594 q 0.23419,-0.54644 0.76501,-0.54644 0.56205,0 0.76501,0.54644 z m -7.41591,-2.8883 h 4.51199 l -2.23258,-5.55802 z"
         style="font-style:normal;font-variant:normal;font-weight:bold;font-stretch:normal;font-size:80px;line-height:1.25;font-family:Comfortaa;-inkscape-font-specification:'Comfortaa, Bold';font-variant-ligatures:normal;font-variant-position:super;font-variant-caps:normal;font-variant-numeric:normal;font-feature-settings:normal;text-align:start;letter-spacing:0px;word-spacing:0px;writing-mode:lr-tb;text-anchor:start;fill:#000000;fill-opacity:1;stroke:none;stroke-width:0.19515544"
         id="path4534"
         inkscape:connector-curvature="0" />
      <path
         inkscape:connector-curvature="0"
         id="path4536"
         transform="scale(0.26458333)"
         d="m 302.43945,488.21484 c -0.62674,0 -1.15469,0.21332 -1.58203,0.64063 -0.39883,0.39886 -0.59765,0.91039 -0.59765,1.53711 v 9.63281 l 3.02343,7.2168 c 0.19679,0.51139 0.29688,0.94476 0.29688,1.29883 0,0.25539 -0.0393,0.49568 -0.0957,0.72851 0.53653,0.49322 1.11879,0.93482 1.77539,1.29297 1.56686,0.85465 3.33314,1.2832 5.29882,1.2832 1.42443,0 2.76409,-0.24228 4.01758,-0.72656 1.25352,-0.51278 2.33447,-1.22505 3.2461,-2.13672 v 0.46875 c 0,0.62672 0.20076,1.15469 0.59961,1.58203 0.42731,0.39887 0.9533,0.59766 1.58007,0.59766 0.65522,0 1.18319,-0.19879 1.58203,-0.59766 0.39885,-0.42734 0.59766,-0.95531 0.59766,-1.58203 v -19.05859 c 0,-0.65525 -0.19881,-1.18124 -0.59766,-1.58008 -0.39884,-0.39882 -0.92681,-0.59766 -1.58203,-0.59766 -0.62677,0 -1.15276,0.19884 -1.58007,0.59766 -0.39885,0.39884 -0.59961,0.92483 -0.59961,1.58008 v 12.05078 c 0,1.02561 -0.28374,1.95119 -0.85352,2.77734 -0.54128,0.82616 -1.3115,1.48249 -2.30859,1.9668 -0.96862,0.48431 -2.05153,0.72656 -3.24805,0.72656 -2.05115,0 -3.70354,-0.58395 -4.95703,-1.75195 -1.22502,-1.19655 -1.83594,-2.94828 -1.83594,-5.25586 v -10.51367 c 0,-0.62672 -0.21331,-1.13825 -0.64062,-1.53711 -0.39887,-0.42731 -0.91235,-0.64063 -1.53907,-0.64063 z"
         style="font-style:normal;font-variant:normal;font-weight:bold;font-stretch:normal;font-size:80px;line-height:1.25;font-family:Comfortaa;-inkscape-font-specification:'Comfortaa, Bold';font-variant-ligatures:normal;font-variant-position:super;font-variant-caps:normal;font-variant-numeric:normal;font-feature-settings:normal;text-align:start;letter-spacing:0px;word-spacing:0px;writing-mode:lr-tb;text-anchor:start;fill:#000000;fill-opacity:1;stroke:none;stroke-width:0.53415948" />
      <path
         inkscape:connector-curvature="0"
         id="path4538"
         transform="scale(0.26458333)"
         d="m 328.94531,469.00586 c -0.86546,0 -1.57232,0.27542 -2.12304,0.82617 -0.55073,0.55073 -0.82618,1.25759 -0.82618,2.12305 v 8.49804 h -2.71484 c -0.8261,0 -1.49444,0.23693 -2.00586,0.70899 -0.51139,0.47206 -0.76758,1.09997 -0.76758,1.88672 0,0.70811 0.25619,1.29942 0.76758,1.77148 0.51142,0.47207 1.17976,0.70703 2.00586,0.70703 h 2.71484 v 14.57618 c 0,2.16362 0.45266,4.11092 1.35743,5.84179 0.90479,1.73093 2.14325,3.10612 3.71679,4.12891 1.61288,0.98346 3.38297,1.47656 5.31055,1.47656 h 1.0625 c 1.02279,0 1.8491,-0.27542 2.47852,-0.82617 0.1568,-0.12914 0.29011,-0.26958 0.41015,-0.41602 -0.1084,-0.27495 -0.16601,-0.57695 -0.16601,-0.90625 v -2.91796 c -0.003,-0.003 -0.005,-0.007 -0.008,-0.01 -0.47206,-0.55075 -1.06337,-0.82617 -1.77148,-0.82617 h -2.00586 c -1.25884,0 -2.32206,-0.52968 -3.1875,-1.5918 -0.86546,-1.06215 -1.29688,-2.37958 -1.29688,-3.95312 v -14.57618 h 5.01563 c 0.8261,0 1.49446,-0.23496 2.00586,-0.70703 0.51139,-0.47206 0.76758,-1.06337 0.76758,-1.77148 0,-0.78675 -0.25619,-1.41466 -0.76758,-1.88672 -0.5114,-0.47206 -1.17976,-0.70899 -2.00586,-0.70899 h -5.01563 v -8.49804 c 0,-0.86546 -0.27544,-1.57232 -0.82617,-2.12305 -0.55073,-0.55075 -1.25954,-0.82617 -2.125,-0.82617 z"
         style="font-style:normal;font-variant:normal;font-weight:bold;font-stretch:normal;font-size:80px;line-height:1.25;font-family:Comfortaa;-inkscape-font-specification:'Comfortaa, Bold';font-variant-ligatures:normal;font-variant-position:super;font-variant-caps:normal;font-variant-numeric:normal;font-feature-settings:normal;text-align:start;letter-spacing:0px;word-spacing:0px;writing-mode:lr-tb;text-anchor:start;fill:#000000;fill-opacity:1;stroke:none;stroke-width:0.73759538" />
      <path
         inkscape:connector-curvature="0"
         id="path4540"
         transform="scale(0.26458333)"
         d="m 344.26172,477.7832 c -0.63441,0 -1.169,0.20201 -1.60156,0.60547 -0.40372,0.40369 -0.60352,0.93638 -0.60352,1.59961 v 29.41406 c 0,0.63444 0.19982,1.16896 0.60352,1.60157 0.43256,0.40373 0.96715,0.60547 1.60156,0.60547 0.66325,0 1.19587,-0.20205 1.59961,-0.60547 0.40373,-0.43261 0.60742,-0.96713 0.60742,-1.60157 v -12.19726 c 0,-1.03816 0.2724,-1.97421 0.82031,-2.81055 0.57675,-0.83626 1.35742,-1.49999 2.33789,-1.99023 1.00928,-0.49025 2.11892,-0.73633 3.33008,-0.73633 2.07628,0 3.73265,0.60529 4.97266,1.81641 1.26886,1.18234 1.90429,2.94155 1.90429,5.27734 v 10.64062 c 0,0.63444 0.20212,1.16896 0.60547,1.60157 0.43261,0.40373 0.96522,0.60547 1.59961,0.60547 0.63443,0 1.15487,-0.20205 1.5586,-0.60547 0.004,-0.004 0.007,-0.009 0.0117,-0.0137 C 363.20388,510.5532 363,510.01475 363,509.375 v -16.37891 c -0.0337,-0.0658 -0.0586,-0.13846 -0.0937,-0.20312 -0.89393,-1.67259 -2.13662,-2.94151 -3.72266,-3.80664 -1.58607,-0.86506 -3.37354,-1.29688 -5.36328,-1.29688 -1.44188,0 -2.79756,0.2588 -4.0664,0.77735 -1.26884,0.4902 -2.36435,1.19824 -3.28711,2.12109 v -10.59961 c 0,-0.66319 -0.20174,-1.19592 -0.60547,-1.59961 -0.40374,-0.40377 -0.93636,-0.60547 -1.59961,-0.60547 z"
         style="font-style:normal;font-variant:normal;font-weight:bold;font-stretch:normal;font-size:80px;line-height:1.25;font-family:Comfortaa;-inkscape-font-specification:'Comfortaa, Bold';font-variant-ligatures:normal;font-variant-position:super;font-variant-caps:normal;font-variant-numeric:normal;font-feature-settings:normal;text-align:start;letter-spacing:0px;word-spacing:0px;writing-mode:lr-tb;text-anchor:start;fill:#000000;fill-opacity:1;stroke:none;stroke-width:0.54069817" />
      <path
         d="m 99.795442,128.95544 q 0.799528,0 1.436818,0.34763 0.63732,0.34761 0.99651,1.01969 0.35922,0.66047 0.35922,1.59903 v 2.85049 q 0,0.25492 -0.17382,0.42874 -0.16221,0.16222 -0.41714,0.16222 -0.25492,0 -0.42873,-0.16222 -0.16223,-0.17382 -0.16223,-0.42874 v -2.85049 q 0,-0.93856 -0.50983,-1.41364 -0.49825,-0.48667 -1.332551,-0.48667 -0.486671,0 -0.892221,0.19699 -0.39397,0.19698 -0.62572,0.53301 -0.22016,0.33604 -0.22016,0.75318 v 3.26762 q 0,0.25492 -0.16222,0.42874 -0.16222,0.16222 -0.428738,0.16222 -0.254913,0 -0.428727,-0.16222 -0.162224,-0.17382 -0.162224,-0.42874 v -5.16794 q 0,-0.26652 0.162224,-0.42874 0.173814,-0.16222 0.428727,-0.16222 0.266518,0 0.428738,0.16222 0.16222,0.16222 0.16222,0.42874 v 0.12745 q 0.37079,-0.37079 0.88064,-0.56778 0.509841,-0.20857 1.089214,-0.20857 z"
         style="font-style:normal;font-variant:normal;font-weight:bold;font-stretch:normal;font-size:80px;line-height:1.25;font-family:Comfortaa;-inkscape-font-specification:'Comfortaa, Bold';font-variant-ligatures:normal;font-variant-position:super;font-variant-caps:normal;font-variant-numeric:normal;font-feature-settings:normal;text-align:start;letter-spacing:0px;word-spacing:0px;writing-mode:lr-tb;text-anchor:start;fill:#000000;fill-opacity:1;stroke:none;stroke-width:0.14484175"
         id="path4542"
         inkscape:connector-curvature="0" />
      <path
         id="path4528"
         d="m 53.695946,118.78861 c -0.310444,0 -0.57123,0.0991 -0.782897,0.29663 -0.197556,0.19755 -0.296624,0.45834 -0.296624,0.78289 v 5.7149 c -0.493887,-0.60677 -1.093301,-1.07933 -1.798855,-1.418 -0.705556,-0.33867 -1.467723,-0.50798 -2.286166,-0.50798 -1.016,0 -1.940402,0.25423 -2.772958,0.76223 -0.818444,0.508 -1.46739,1.21356 -1.947167,2.11666 -0.465666,0.889 -0.698666,1.88365 -0.698666,2.98432 0,1.10066 0.254227,2.10238 0.762227,3.0055 0.508,0.889 1.206479,1.59456 2.095479,2.11667 0.903113,0.508 1.897758,0.76222 2.984315,0.76222 1.086556,0 2.067568,-0.25422 2.942455,-0.76222 0.826066,-0.48515 1.485209,-1.13077 1.982308,-1.9327 -0.102645,-0.36303 -0.156061,-0.74916 -0.156061,-1.16066 0,-0.74235 0.157855,-1.40597 0.473355,-1.99057 0.162637,-0.29739 0.35564,-0.56125 0.578776,-0.79117 v -8.8992 c 0,-0.32455 -0.09855,-0.58534 -0.296106,-0.78289 -0.197556,-0.19756 -0.458859,-0.29663 -0.783415,-0.29663 z m -4.741312,6.77323 c 0.705556,0 1.340866,0.1764 1.905309,0.52917 0.578557,0.33867 1.029883,0.81174 1.354439,1.41852 0.324557,0.59266 0.486794,1.26284 0.486794,2.01073 0,0.74788 -0.162237,1.42514 -0.486794,2.03192 -0.324556,0.60678 -0.775882,1.08641 -1.354439,1.43918 -0.564443,0.33867 -1.199753,0.50798 -1.905309,0.50798 -0.705557,0 -1.347425,-0.16931 -1.925982,-0.50798 -0.564443,-0.35277 -1.016288,-0.8324 -1.354955,-1.43918 -0.324556,-0.60678 -0.486791,-1.28404 -0.486791,-2.03192 0,-0.74789 0.162235,-1.41807 0.486791,-2.01073 0.338667,-0.60678 0.790512,-1.07985 1.354955,-1.41852 0.578557,-0.35277 1.220425,-0.52917 1.925982,-0.52917 z"
         style="font-style:normal;font-variant:normal;font-weight:bold;font-stretch:normal;font-size:80px;line-height:1.25;font-family:Comfortaa;-inkscape-font-specification:'Comfortaa, Bold';font-variant-ligatures:normal;font-variant-caps:normal;font-variant-numeric:normal;font-feature-settings:normal;text-align:start;letter-spacing:0px;word-spacing:0px;writing-mode:lr-tb;text-anchor:start;fill:#000000;fill-opacity:1;stroke:none;stroke-width:0.26458332"
         inkscape:connector-curvature="0" />
      <g
         transform="matrix(1.1844496,0,0,1.1844496,-9.0277068,-23.403745)"
         id="g1390">
        <g
           id="g4737"
           transform="matrix(0.02174031,0,0,0.02174031,67.589084,91.325241)">
          <g
             id="g4992"
             transform="matrix(0.98462344,0,0,0.98462344,2152.1467,302.95663)">
            <path
               id="path5097"
               d="m -3027.8052,1590.3965 v -110.3834 c 22.2459,-10.7702 37.606,-33.583 37.606,-59.9602 0,-36.762 -29.8086,-66.5723 -66.5759,-66.5723 -36.7725,0 -66.5758,29.8085 -66.5758,66.5723 0,26.3772 15.3548,49.1846 37.606,59.9602 v 110.3887 h 57.9397 z"
               inkscape:connector-curvature="0"
               style="stroke-width:1.77696705" />
          </g>
          <g
             id="g4994"
             transform="matrix(0.98462344,0,0,0.98462344,671.87857,667.0133)" />
          <g
             id="g4996"
             transform="matrix(0.98462344,0,0,0.98462344,671.87857,667.0133)" />
          <g
             id="g4998"
             transform="matrix(0.98462344,0,0,0.98462344,671.87857,667.0133)" />
          <g
             id="g5000"
             transform="matrix(0.98462344,0,0,0.98462344,671.87857,667.0133)" />
          <g
             id="g5002"
             transform="matrix(0.98462344,0,0,0.98462344,671.87857,667.0133)" />
          <g
             id="g5004"
             transform="matrix(0.98462344,0,0,0.98462344,671.87857,667.0133)" />
          <g
             id="g5006"
             transform="matrix(0.98462344,0,0,0.98462344,671.87857,667.0133)" />
          <g
             id="g5008"
             transform="matrix(0.98462344,0,0,0.98462344,671.87857,667.0133)" />
          <g
             id="g5010"
             transform="matrix(0.98462344,0,0,0.98462344,671.87857,667.0133)" />
          <g
             id="g5012"
             transform="matrix(0.98462344,0,0,0.98462344,671.87857,667.0133)" />
          <g
             id="g5014"
             transform="matrix(0.98462344,0,0,0.98462344,671.87857,667.0133)" />
          <g
             id="g5016"
             transform="matrix(0.98462344,0,0,0.98462344,671.87857,667.0133)" />
          <g
             id="g5018"
             transform="matrix(0.98462344,0,0,0.98462344,671.87857,667.0133)" />
          <g
             id="g5020"
             transform="matrix(0.98462344,0,0,0.98462344,671.87857,667.0133)" />
          <g
             id="g5022"
             transform="matrix(0.98462344,0,0,0.98462344,671.87857,667.0133)" />
        </g>
        <circle
           id="path56"
           cx="48.944035"
           cy="128.17929"
           r="0.36380211"
           style="fill:#9bcae0;fill-opacity:1;stroke-width:0.05909475" />
        <g
           id="g63"
           transform="translate(0.01654785)"
           style="fill:#9bcae0;fill-opacity:1">
          <rect
             y="131.33566"
             x="48.622272"
             height="0.62011713"
             width="0.25192261"
             id="rect57"
             style="fill:#9bcae0;fill-opacity:1;stroke-width:0.15502928" />
          <rect
             style="fill:#9bcae0;fill-opacity:1;stroke-width:0.15502928"
             id="rect59"
             width="0.25192261"
             height="0.62011713"
             x="48.980782"
             y="131.33566" />
        </g>
      </g>
    </g>
  </g>
</svg>
